<svg width="180" height="30" viewBox="0 0 180 30" fill="none" xmlns="http://www.w3.org/2000/svg">
<path d="M13.84 0.799998C16.72 0.799998 18.9333 1.49333 20.48 2.88C22.0533 4.26667 22.84 6.16 22.84 8.56C22.84 11.4667 21.96 13.68 20.2 15.2C18.44 16.6933 15.9867 17.44 12.84 17.44H4.88L4.08 27.64C4.05333 28.12 3.88 28.5067 3.56 28.8C3.24 29.0667 2.84 29.2 2.36 29.2C1.88 29.2 1.49333 29.0533 1.2 28.76C0.906667 28.44 0.773333 28.0267 0.8 27.52L2.8 2.4C2.88 1.33333 3.45333 0.799998 4.52 0.799998H13.84ZM12.68 14.72C17.2933 14.72 19.6 12.72 19.6 8.72C19.6 5.25333 17.5867 3.52 13.56 3.52H6L5.12 14.72H12.68ZM45.3013 0.799998C45.7546 0.799998 46.1013 0.919998 46.3413 1.16C46.6079 1.4 46.7413 1.72 46.7413 2.12C46.7413 2.57333 46.6079 2.92 46.3413 3.16C46.0746 3.4 45.6879 3.52 45.1813 3.52H31.7413L30.9813 13.32H43.5013C43.9813 13.32 44.3413 13.44 44.5813 13.68C44.8479 13.92 44.9813 14.24 44.9813 14.64C44.9813 15.0667 44.8346 15.4133 44.5413 15.68C44.2746 15.92 43.9013 16.04 43.4213 16.04H30.7813L29.9813 26.28H43.3013C43.7546 26.28 44.1012 26.4 44.3412 26.64C44.6079 26.88 44.7413 27.2 44.7413 27.6C44.7413 28.0267 44.5946 28.3733 44.3013 28.64C44.0346 28.88 43.6613 29 43.1813 29H28.1813C27.6479 29 27.2479 28.8533 26.9813 28.56C26.7146 28.2667 26.5946 27.8533 26.6213 27.32L28.5813 2.4C28.6613 1.33333 29.2346 0.799998 30.3013 0.799998H45.3013ZM71.3425 27.04C71.4758 27.3067 71.5425 27.5467 71.5425 27.76C71.5425 28.16 71.3692 28.5067 71.0225 28.8C70.6758 29.0933 70.2892 29.24 69.8625 29.24C69.5692 29.24 69.2892 29.16 69.0225 29C68.7558 28.84 68.5425 28.6 68.3825 28.28L63.9825 19.96C63.3958 18.8667 62.7425 18.12 62.0225 17.72C61.3025 17.2933 60.2892 17.08 58.9825 17.08H53.9825L53.1825 27.64C53.1558 28.12 52.9825 28.5067 52.6625 28.8C52.3425 29.0667 51.9292 29.2 51.4225 29.2C50.9158 29.2 50.5158 29.0533 50.2225 28.76C49.9558 28.44 49.8492 28.0133 49.9025 27.48L51.8625 2.4C51.8892 1.89333 52.0625 1.50667 52.3825 1.24C52.7025 0.946665 53.1025 0.799998 53.5825 0.799998H63.5025C66.3825 0.799998 68.5958 1.45333 70.1425 2.76C71.6892 4.04 72.4625 5.89333 72.4625 8.32C72.4625 10.7733 71.7958 12.72 70.4625 14.16C69.1292 15.6 67.1425 16.4667 64.5025 16.76C65.0892 16.9733 65.6092 17.32 66.0625 17.8C66.5158 18.2533 66.9692 18.9067 67.4225 19.76L71.3425 27.04ZM62.4225 14.36C64.7158 14.36 66.4225 13.88 67.5425 12.92C68.6892 11.96 69.2625 10.4933 69.2625 8.52C69.2625 6.81333 68.7558 5.56 67.7425 4.76C66.7558 3.93333 65.2625 3.52 63.2625 3.52H55.0225L54.1825 14.36H62.4225ZM113.804 2.16C114.044 1.62667 114.378 1.22667 114.804 0.959999C115.231 0.693332 115.698 0.559999 116.204 0.559999C116.791 0.559999 117.298 0.746666 117.724 1.12C118.151 1.46667 118.364 1.94667 118.364 2.56C118.364 2.90667 118.258 3.33333 118.044 3.84L107.804 27.6C107.564 28.1333 107.191 28.5467 106.684 28.84C106.178 29.1333 105.644 29.28 105.084 29.28C104.524 29.28 104.018 29.1333 103.564 28.84C103.111 28.5467 102.804 28.12 102.644 27.56L97.4844 8.72L89.4044 27.6C89.1644 28.1333 88.791 28.56 88.2844 28.88C87.7777 29.1733 87.2444 29.32 86.6844 29.32C86.1244 29.32 85.6177 29.1733 85.1644 28.88C84.711 28.56 84.391 28.12 84.2044 27.56L77.6844 3.8C77.6044 3.50667 77.5644 3.22667 77.5644 2.96C77.5644 2.24 77.831 1.65333 78.3644 1.2C78.8977 0.746666 79.511 0.52 80.2044 0.52C80.711 0.52 81.1644 0.666666 81.5644 0.959999C81.991 1.22667 82.271 1.64 82.4044 2.2L87.4444 21.8L95.7644 2.28C96.0044 1.72 96.351 1.29333 96.8044 0.999998C97.2577 0.706665 97.7377 0.559999 98.2444 0.559999C98.751 0.559999 99.2044 0.719999 99.6044 1.04C100.004 1.33333 100.284 1.74667 100.444 2.28L105.524 21.92L113.804 2.16ZM123.778 29.24C123.005 29.24 122.392 29.0133 121.938 28.56C121.512 28.08 121.325 27.44 121.378 26.64L123.258 3.12C123.312 2.34666 123.578 1.73333 124.058 1.28C124.565 0.826665 125.205 0.599998 125.978 0.599998C126.752 0.599998 127.352 0.839999 127.778 1.32C128.232 1.77333 128.432 2.38667 128.378 3.16L126.538 26.68C126.458 27.4533 126.165 28.08 125.658 28.56C125.178 29.0133 124.552 29.24 123.778 29.24ZM141.668 29.2C140.895 29.2 140.282 28.9733 139.828 28.52C139.402 28.04 139.215 27.4133 139.268 26.64L140.988 5.04H133.748C133.002 5.04 132.428 4.88 132.028 4.56C131.655 4.21333 131.468 3.72 131.468 3.08C131.468 1.56 132.322 0.799998 134.028 0.799998H153.708C154.455 0.799998 155.015 0.973332 155.388 1.32C155.788 1.66667 155.988 2.16 155.988 2.8C155.988 4.29333 155.135 5.04 153.428 5.04H146.148L144.428 26.68C144.375 27.4533 144.095 28.0667 143.588 28.52C143.082 28.9733 142.442 29.2 141.668 29.2ZM179.123 26.08C179.23 26.32 179.283 26.6 179.283 26.92C179.283 27.5867 179.016 28.1333 178.483 28.56C177.976 28.9867 177.403 29.2 176.763 29.2C176.31 29.2 175.896 29.08 175.523 28.84C175.15 28.6 174.883 28.2267 174.723 27.72L172.843 22.4H159.003L156.283 27.8C156.043 28.2533 155.736 28.6 155.363 28.84C154.99 29.08 154.576 29.2 154.123 29.2C153.51 29.2 152.963 29 152.483 28.6C152.003 28.1733 151.763 27.6533 151.763 27.04C151.763 26.5867 151.87 26.1867 152.083 25.84L164.643 2.24C164.936 1.70667 165.336 1.29333 165.843 0.999998C166.35 0.706665 166.896 0.559999 167.483 0.559999C168.07 0.559999 168.603 0.719999 169.083 1.04C169.59 1.33333 169.95 1.74667 170.163 2.28L179.123 26.08ZM161.043 18.4H171.403L167.163 6.36L161.043 18.4Z" fill="#6774FF"/>
</svg>
